<svg width="45" height="45" viewBox="0 0 45 45" fill="none" xmlns="http://www.w3.org/2000/svg">
<path d="M18.5236 38.4763L18.5227 38.4754L6.52444 26.4769C5.86402 25.8165 5.49912 24.9395 5.49912 24.0026C5.49912 23.0657 5.86402 22.1888 6.52444 21.5283C7.18485 20.8679 8.0618 20.503 8.99868 20.503M18.5236 38.4763L8.99868 20.503M18.5236 38.4763C18.9071 38.8578 19.3736 39.1453 19.8867 39.3164C20.3998 39.4876 20.9455 39.5377 21.4812 39.4628C22.0168 39.3879 22.5279 39.1901 22.9744 38.8848C23.4209 38.5795 23.7907 38.1751 24.0548 37.7031L24.0556 37.7017L39.0525 10.7067C39.0528 10.7063 39.053 10.7059 39.0532 10.7055C39.2777 10.3045 39.4205 9.86294 39.4734 9.40641C39.5263 8.94954 39.488 8.48671 39.3609 8.04471M18.5236 38.4763L20.1919 30.2445M8.99868 20.503C9.45877 20.502 9.9145 20.5921 10.3396 20.768C10.765 20.9441 11.1513 21.2026 11.4763 21.5287M8.99868 20.503L11.4763 21.5287M11.4763 21.5287C11.4764 21.5288 11.4765 21.5289 11.4766 21.529L20.1919 30.2445M11.4763 21.5287L20.1919 30.2445M20.1919 30.2445L32.939 7.30383L32.943 7.29669L32.9431 7.29673C33.4029 6.50021 34.1542 5.91358 35.0385 5.66074C35.9227 5.40791 36.8706 5.50867 37.682 5.94174L37.6867 5.94428L37.6867 5.9443C38.0914 6.16598 38.448 6.46604 38.7355 6.82696C39.0226 7.18741 39.2352 7.60135 39.3609 8.04471M39.3609 8.04471C39.3611 8.04531 39.3612 8.0459 39.3614 8.0465L38.8803 8.18261L39.3608 8.04434C39.3608 8.04446 39.3609 8.04458 39.3609 8.04471ZM14.9895 42.0109L14.9884 42.0097L2.99017 30.0113L2.98986 30.0109C1.38327 28.4072 0.5 26.2728 0.5 24.0026C0.5 21.7325 1.38323 19.5979 2.99017 17.991C6.19341 14.7877 11.804 14.7877 15.0072 17.991L18.5707 21.5545L19.0393 22.0232L19.3613 21.4438L28.5669 4.87691L28.5672 4.87649C29.3824 3.40595 30.6157 2.21039 32.1108 1.44118C33.6059 0.67197 35.2956 0.363703 36.966 0.555408C38.6364 0.747112 40.2124 1.43017 41.4944 2.51809C42.7763 3.60602 43.7067 5.04988 44.1676 6.66688L44.1682 6.66877C44.4785 7.74142 44.5724 8.86506 44.4446 9.97435C44.3168 11.0836 43.9697 12.1565 43.4235 13.1304L43.4225 13.1321L28.4254 40.1274C28.4254 40.1275 28.4253 40.1276 28.4253 40.1277C27.6857 41.4497 26.6079 42.5513 25.3023 43.3196C23.9967 44.0879 22.5103 44.4953 20.9954 44.5C19.8794 44.5031 18.774 44.2848 17.743 43.8575C16.712 43.4302 15.7761 42.8026 14.9895 42.0109Z" fill="" stroke=""/>
</svg>
